<svg width="113" height="24" viewBox="0 0 113 24" fill="none" xmlns="http://www.w3.org/2000/svg">
<path d="M7.25701 4.17608C6.80997 3.01358 6.45234 2.08955 6.45234 1.70205C6.45234 1.4934 6.51195 1.25494 6.83977 1.1059C7.108 0.986671 7.64444 0.956864 7.97227 0.956864C8.18088 0.956864 8.27029 0.897248 8.27029 0.74821C8.27029 0.599173 8.00207 0.539559 7.46563 0.539559C6.33313 0.539559 4.99202 0.62898 4.694 0.62898C4.33637 0.62898 2.63763 0.539559 1.20711 0.539559C0.730275 0.539559 0.432251 0.569366 0.432251 0.74821C0.432251 0.867441 0.491856 0.956864 0.67067 0.956864C0.849485 0.956864 1.35613 0.956864 1.80316 1.07609C2.84625 1.37417 3.29328 1.70205 3.94894 3.37127L11.2505 21.6433C11.8168 23.074 11.9658 23.4914 12.3234 23.4914C12.6214 23.4914 12.7407 23.0144 13.5751 21.226C14.2606 19.7654 15.6017 16.5462 17.4196 12.1943C18.9396 8.52798 20.4297 4.95107 20.7575 4.11646C21.5622 2.08955 22.0092 1.58282 22.3966 1.31455C22.9629 0.956864 23.6185 0.956864 23.8272 0.956864C24.0656 0.956864 24.1848 0.897248 24.1848 0.74821C24.1848 0.599173 24.006 0.539559 23.6782 0.539559C22.8139 0.539559 21.5324 0.62898 21.3536 0.62898C20.9959 0.62898 19.625 0.539559 18.4329 0.539559C17.9561 0.539559 17.7773 0.599173 17.7773 0.778017C17.7773 0.927057 17.9263 0.956864 18.1051 0.956864C18.4329 0.956864 18.88 0.956864 19.2376 1.07609C19.5356 1.22513 19.625 1.52321 19.625 1.76167C19.625 2.02993 19.5058 2.44724 19.3568 2.89435C18.7011 5.04049 14.7076 15.4433 12.9791 19.4375L7.25701 4.17608Z" fill="white"/>
<path d="M32.9225 9.18374C32.9225 4.53377 32.9225 3.69916 32.9821 2.74532C33.0417 1.70205 33.2801 1.19532 34.0848 1.04629C34.4424 0.986671 34.6212 0.956864 34.8298 0.956864C34.9491 0.956864 35.0683 0.897248 35.0683 0.778017C35.0683 0.599173 34.9193 0.539559 34.5914 0.539559C33.6974 0.539559 31.8198 0.62898 31.6708 0.62898C31.5218 0.62898 29.6442 0.539559 28.6607 0.539559C28.3329 0.539559 28.1839 0.599173 28.1839 0.778017C28.1839 0.897248 28.3031 0.956864 28.4223 0.956864C28.6309 0.956864 29.0184 0.986671 29.3462 1.07609C30.0019 1.22513 30.2999 1.73186 30.3595 2.74532C30.4191 3.69916 30.4191 4.53377 30.4191 9.18374V14.4299C30.4191 17.2914 30.4191 19.6462 30.2701 20.8981C30.1509 21.7625 30.0019 22.4183 29.4058 22.5375C29.1376 22.5971 28.78 22.6567 28.5117 22.6567C28.3329 22.6567 28.2733 22.7462 28.2733 22.8356C28.2733 23.0144 28.4223 23.074 28.7502 23.074C29.6442 23.074 31.5218 22.9846 31.6708 22.9846C31.8198 22.9846 33.6974 23.074 35.3365 23.074C35.6643 23.074 35.8133 22.9846 35.8133 22.8356C35.8133 22.7462 35.7537 22.6567 35.5749 22.6567C35.3067 22.6567 34.651 22.5971 34.2338 22.5375C33.3397 22.4183 33.1609 21.7625 33.0715 20.8981C32.9225 19.6462 32.9225 17.2914 32.9225 14.4299V9.18374Z" fill="white"/>
<path d="M47.4193 23.4914C49.0286 23.4914 50.6379 23.1337 51.9194 22.2394C53.9758 20.7789 54.4527 18.5135 54.4527 17.2914C54.4527 14.9068 53.6182 13.0587 50.1015 10.2866L49.267 9.63085C46.406 7.39529 45.6311 6.32222 45.6311 4.62319C45.6311 2.44724 47.2405 1.16552 49.2968 1.16552C52.0387 1.16552 52.8433 2.41743 53.0221 2.74532C53.201 3.0732 53.3798 3.878 53.4096 4.23569C53.4394 4.47415 53.4692 4.62319 53.648 4.62319C53.797 4.62319 53.8566 4.41454 53.8566 3.93761C53.8566 1.9107 53.9758 0.927057 53.9758 0.778017C53.9758 0.62898 53.9162 0.569366 53.6778 0.569366C53.4394 0.569366 53.201 0.539559 52.6347 0.420328C51.8896 0.241484 51.0254 0.122253 49.8631 0.122253C46.0782 0.122253 43.694 2.2982 43.694 5.48761C43.694 7.51452 44.4092 9.36259 47.5683 11.9558L48.9094 13.0587C51.4724 15.1751 52.3367 16.3674 52.3367 18.4241C52.3367 20.3318 50.936 22.3885 48.0749 22.3885C46.0782 22.3885 44.1112 21.5539 43.6642 19.3481C43.5748 18.9308 43.5748 18.5135 43.5748 18.2452C43.5748 18.0068 43.545 17.9173 43.3661 17.9173C43.2171 17.9173 43.1575 18.0664 43.1277 18.3943C43.0979 18.8712 42.9787 20.0635 42.9787 21.5539C42.9787 22.3587 43.0085 22.4779 43.4258 22.6865C44.6477 23.2827 46.0186 23.4914 47.4193 23.4914Z" fill="white"/>
<path d="M60.7205 11.777C60.7205 17.1423 64.118 23.4914 72.2838 23.4914C79.4662 23.4914 84.175 17.977 84.175 11.3001C84.175 4.35492 79.1682 0.122253 72.4626 0.122253C64.2372 0.122253 60.7205 6.94817 60.7205 11.777ZM63.5517 10.9424C63.5517 4.41454 67.277 1.13571 72.254 1.13571C76.9628 1.13571 81.314 4.98088 81.314 12.1347C81.314 20.8087 75.7707 22.3587 73.0885 22.3587C67.7241 22.3587 63.5517 17.8875 63.5517 10.9424Z" fill="white"/>
<path d="M92.6915 4.74242C93.6452 5.81549 97.0128 9.57124 100.47 13.2972C103.629 16.6952 107.921 21.0769 108.248 21.375C109.828 22.9548 110.186 23.2827 110.424 23.2827C110.633 23.2827 110.692 23.1337 110.692 21.1664L110.752 3.69916C110.752 1.9107 110.871 1.25494 111.854 1.04629C112.212 0.956864 112.421 0.956864 112.57 0.956864C112.778 0.956864 112.898 0.867441 112.898 0.74821C112.898 0.569366 112.689 0.539559 112.361 0.539559C111.139 0.539559 110.156 0.62898 109.828 0.62898C109.5 0.62898 108.07 0.539559 106.728 0.539559C106.371 0.539559 106.132 0.569366 106.132 0.74821C106.132 0.867441 106.162 0.956864 106.371 0.956864C106.609 0.956864 107.295 0.986671 107.831 1.1059C108.755 1.34436 108.964 2.00013 108.993 3.93761L109.321 19.0798C108.368 18.0962 105.119 14.4597 102.169 11.3001C97.5791 6.38183 93.1385 1.58282 92.6915 1.07609C92.3935 0.778017 91.8868 0.122253 91.6484 0.122253C91.41 0.122253 91.3206 0.450135 91.3206 1.61263L91.2908 18.6923C91.2908 21.4048 91.1418 22.2692 90.3967 22.4779C89.9497 22.6269 89.4132 22.6567 89.1748 22.6567C89.0258 22.6567 88.9364 22.7164 88.9364 22.8356C88.9364 23.0442 89.1152 23.074 89.4132 23.074C90.7543 23.074 92.006 22.9846 92.2743 22.9846C92.5425 22.9846 93.7346 23.074 95.4333 23.074C95.791 23.074 95.9698 23.0144 95.9698 22.8356C95.9698 22.7164 95.8804 22.6567 95.7313 22.6567C95.4631 22.6567 94.8075 22.6269 94.2412 22.4779C93.4366 22.2394 93.1385 21.4644 93.0789 19.0202L92.6915 4.74242Z" fill="white"/>
</svg>
